<svg width="212" height="15" viewBox="0 0 212 15" fill="none" xmlns="http://www.w3.org/2000/svg">
<path d="M0.201172 14V0.660156H7.75977C8.39779 0.660156 8.9707 0.757812 9.47852 0.953125C9.99284 1.14844 10.403 1.40885 10.709 1.73438C11.0215 2.0599 11.2559 2.42122 11.4121 2.81836C11.5749 3.21549 11.6562 3.62891 11.6562 4.05859C11.6562 4.85938 11.4414 5.5332 11.0117 6.08008C10.582 6.62044 10.0384 6.96549 9.38086 7.11523C10.097 7.22591 10.6992 7.59049 11.1875 8.20898C11.6758 8.82747 11.9199 9.55013 11.9199 10.377C11.9199 11.4056 11.5781 12.2682 10.8945 12.9648C10.2174 13.6549 9.25391 14 8.00391 14H0.201172ZM3.63867 11.002H7.0957C7.50586 11.002 7.82812 10.901 8.0625 10.6992C8.30339 10.4974 8.42383 10.2174 8.42383 9.85938C8.42383 9.52083 8.30664 9.25065 8.07227 9.04883C7.83789 8.84049 7.51237 8.73633 7.0957 8.73633H3.63867V11.002ZM3.63867 5.73828H6.97852C7.33659 5.73828 7.62305 5.64714 7.83789 5.46484C8.05273 5.28255 8.16016 5.02865 8.16016 4.70312C8.16016 4.38411 8.04948 4.13021 7.82812 3.94141C7.61328 3.7526 7.33008 3.6582 6.97852 3.6582H3.63867V5.73828ZM14.7949 14V0.660156H24.5703V3.6582H18.2324V5.73828H24.4336V8.73633H18.2324V11.002H24.5703V14H14.7949ZM26.1465 0.660156H30.0332L32.9336 5.58203L35.7949 0.660156H39.6914L34.6523 8.61914V14H31.2148V8.61914L26.1465 0.660156ZM40.7305 10.1328C40.3724 9.26693 40.1934 8.33594 40.1934 7.33984C40.1934 6.34375 40.3724 5.41602 40.7305 4.55664C41.0951 3.69076 41.5931 2.95833 42.2246 2.35938C42.8561 1.76042 43.6113 1.29167 44.4902 0.953125C45.3757 0.608073 46.3229 0.435547 47.332 0.435547C48.3411 0.435547 49.2852 0.608073 50.1641 0.953125C51.043 1.29167 51.7949 1.76042 52.4199 2.35938C53.0514 2.95833 53.5462 3.69076 53.9043 4.55664C54.2689 5.41602 54.4512 6.34375 54.4512 7.33984C54.4512 8.33594 54.2689 9.26693 53.9043 10.1328C53.5462 10.9922 53.0514 11.7214 52.4199 12.3203C51.7949 12.9193 51.043 13.3913 50.1641 13.7363C49.2852 14.0749 48.3411 14.2441 47.332 14.2441C46.3229 14.2441 45.3757 14.0749 44.4902 13.7363C43.6113 13.3913 42.8561 12.9193 42.2246 12.3203C41.5931 11.7214 41.0951 10.9922 40.7305 10.1328ZM43.6992 7.33984C43.6992 8.4401 44.0345 9.35807 44.7051 10.0938C45.3757 10.8294 46.2513 11.1973 47.332 11.1973C48.4128 11.1973 49.2852 10.8294 49.9492 10.0938C50.6198 9.35807 50.9551 8.4401 50.9551 7.33984C50.9551 6.23307 50.6198 5.3151 49.9492 4.58594C49.2852 3.85026 48.4128 3.48242 47.332 3.48242C46.2513 3.48242 45.3757 3.85026 44.7051 4.58594C44.0345 5.3151 43.6992 6.23307 43.6992 7.33984ZM57.1895 14V0.660156H60.7246L66.125 8.00391V0.660156H69.5918V14H66.2715L60.627 6.27539V14H57.1895ZM72.9941 14V0.660156H78.5898C79.9896 0.660156 81.2331 0.923828 82.3203 1.45117C83.4076 1.97852 84.2604 2.75 84.8789 3.76562C85.5039 4.78125 85.8164 5.96615 85.8164 7.32031C85.8164 8.67448 85.5039 9.86263 84.8789 10.8848C84.2604 11.9004 83.4076 12.6751 82.3203 13.209C81.2396 13.7363 80.0026 14 78.6094 14H72.9941ZM76.4316 11.002H78.5898C79.7227 11.002 80.6211 10.6471 81.2852 9.9375C81.9557 9.22786 82.291 8.35547 82.291 7.32031C82.291 6.24609 81.972 5.36719 81.334 4.68359C80.696 4 79.7878 3.6582 78.6094 3.6582H76.4316V11.002ZM94.0176 2.7207V0.660156H104.438V2.7207H100.404V14H98.0605V2.7207H94.0176ZM107.42 14V0.660156H109.764V6.09961H116.707V0.660156H119.041V14H116.707V8.16016H109.764V14H107.42ZM122.873 14V0.660156H132.014V2.7207H125.217V6.1582H131.877V8.21875H125.217V11.9395H132.014V14H122.873ZM141.221 10.2012C140.843 9.32878 140.654 8.375 140.654 7.33984C140.654 6.30469 140.843 5.35091 141.221 4.47852C141.605 3.60612 142.122 2.87695 142.773 2.29102C143.424 1.70508 144.189 1.24935 145.068 0.923828C145.947 0.598307 146.885 0.435547 147.881 0.435547C148.597 0.435547 149.264 0.526693 149.883 0.708984C150.508 0.884766 151.048 1.12891 151.504 1.44141C151.966 1.75391 152.367 2.0957 152.705 2.4668C153.044 2.83138 153.333 3.23503 153.574 3.67773L150.693 5.18164C150.42 4.69987 150.036 4.29622 149.541 3.9707C149.046 3.64518 148.493 3.48242 147.881 3.48242C146.8 3.48242 145.908 3.85026 145.205 4.58594C144.508 5.3151 144.16 6.23307 144.16 7.33984C144.16 8.4401 144.508 9.35807 145.205 10.0938C145.908 10.8294 146.8 11.1973 147.881 11.1973C148.343 11.1973 148.802 11.1191 149.258 10.9629C149.714 10.8001 150.072 10.6113 150.332 10.3965V9.36133H147.334V6.34375H153.779V11.6367C152.223 13.375 150.257 14.2441 147.881 14.2441C146.885 14.2441 145.947 14.0814 145.068 13.7559C144.189 13.4303 143.424 12.9746 142.773 12.3887C142.122 11.8027 141.605 11.0736 141.221 10.2012ZM156.791 14V0.660156H163.471C164.428 0.660156 165.261 0.858724 165.971 1.25586C166.687 1.65299 167.221 2.18685 167.572 2.85742C167.93 3.52148 168.109 4.27018 168.109 5.10352C168.109 5.55273 168.057 5.97591 167.953 6.37305C167.849 6.76367 167.709 7.10221 167.533 7.38867C167.364 7.67513 167.162 7.93555 166.928 8.16992C166.693 8.4043 166.456 8.59635 166.215 8.74609C165.974 8.88932 165.72 9.00651 165.453 9.09766L168.168 14H164.232L161.986 9.51758H160.229V14H156.791ZM160.229 6.51953H162.953C163.435 6.51953 163.832 6.39258 164.145 6.13867C164.457 5.88477 164.613 5.5332 164.613 5.08398C164.613 4.64128 164.454 4.29297 164.135 4.03906C163.822 3.78516 163.428 3.6582 162.953 3.6582H160.229V6.51953ZM169.588 14L174.617 0.660156H178.953L183.973 14H180.076L179.412 12.0762H174.148L173.494 14H169.588ZM175.096 9.07812H178.475L176.795 4.05859L175.096 9.07812ZM185.959 14V0.660156H189.494L194.895 8.00391V0.660156H198.361V14H195.041L189.396 6.27539V14H185.959ZM201.002 3.6582V0.660156H211.9V3.6582H208.18V14H204.742V3.6582H201.002Z" fill="#3E6695"/>
</svg>
