<svg xmlns="http://www.w3.org/2000/svg" width="23" height="30" viewBox="0 0 23 30" fill="none">
<path d="M23 30H0.5V0H23V30Z" stroke="#E5E7EB"/>
<path d="M20.5742 8.82422C21.3066 8.0918 21.3066 6.90234 20.5742 6.16992C19.8418 5.4375 18.6523 5.4375 17.9199 6.16992L11.75 12.3457L5.57422 6.17578C4.8418 5.44336 3.65234 5.44336 2.91992 6.17578C2.1875 6.9082 2.1875 8.09766 2.91992 8.83008L9.0957 15L2.92578 21.1758C2.19336 21.9082 2.19336 23.0977 2.92578 23.8301C3.6582 24.5625 4.84766 24.5625 5.58008 23.8301L11.75 17.6543L17.9258 23.8242C18.6582 24.5566 19.8477 24.5566 20.5801 23.8242C21.3125 23.0918 21.3125 21.9023 20.5801 21.1699L14.4043 15L20.5742 8.82422Z" fill="#3E6695"/>
</svg>